# xmcd CD database file
#
# Track frame offsets:
#	150
#	11377
#	28600
#	38635
#	50740
#	62330
#	73857
#	87692
#	102182
#	112815
#	122422
#	136907
#	154790
#	168932
#	184757
#	198520
#	212170
#	225032
#	236057
#	248410
#	261032
#
# Disc length: 3634 seconds
#
# Revision: 2
# Processed by: cddbd v1.4PL0 Copyright (c) Steve Scherf et al.
# Submitted via: CDex 1.40Beta9
#
DISCID=0d0e3015
DTITLE=Jim Croce - The Best of (Stories and Characters)
DYEAR=1900
DGENRE=Country
TTITLE0=Time in a bottle
TTITLE1=Operator (That's not the way it feels)
TTITLE2=Alabama rain
TTITLE3=Dreamin' again
TTITLE4=It doesn't have to be that way
TTITLE5=I'll have to say I love you in a song
TTITLE6=Lover's cross
TTITLE7=These dreams
TTITLE8=A long time ago
TTITLE9=Photographs and memories
TTITLE10=I got a name
TTITLE11=Mississippi lady
TTITLE12=New York's not my home
TTITLE13=Roller derby queen
TTITLE14=You don't mess around with Jim
TTITLE15=Bad, bad Leroy Brown
TTITLE16=Walkin' back to Georgia
TTITLE17=Speedball tucker
TTITLE18=Rapid boy (The stock car boy)
TTITLE19=One less set of footprints
TTITLE20=Workin' at the car wash blues
EXTD=Thanks to: Paul Holland ID3G: 2
EXTT0=
EXTT1=
EXTT2=
EXTT3=
EXTT4=
EXTT5=
EXTT6=
EXTT7=
EXTT8=
EXTT9=
EXTT10=
EXTT11=
EXTT12=
EXTT13=
EXTT14=
EXTT15=
EXTT16=
EXTT17=
EXTT18=
EXTT19=
EXTT20=
PLAYORDER=
